<svg width="940" height="300" viewBox="0 0 940 300" fill="none" xmlns="http://www.w3.org/2000/svg">
<rect width="940" height="300" rx="20" fill="#282A36"/>
<path d="M338.708 219.2C333.108 219.2 327.908 218.48 323.108 217.04C318.388 215.52 314.348 213.36 310.988 210.56L317.588 201.56C321.748 204.2 325.468 206.04 328.748 207.08C332.028 208.12 335.308 208.64 338.588 208.64C342.988 208.64 346.468 207.92 349.028 206.48C351.668 205.04 352.988 203.16 352.988 200.84C352.988 199 352.268 197.56 350.828 196.52C349.388 195.48 347.508 194.72 345.188 194.24C342.868 193.76 340.268 193.32 337.388 192.92C334.588 192.52 331.748 192 328.868 191.36C326.068 190.72 323.468 189.84 321.068 188.72C318.748 187.52 316.868 185.88 315.428 183.8C313.988 181.64 313.268 178.84 313.268 175.4C313.268 171.56 314.308 168.28 316.388 165.56C318.468 162.76 321.388 160.6 325.148 159.08C328.988 157.56 333.348 156.8 338.228 156.8C342.868 156.8 347.348 157.44 351.668 158.72C356.068 159.92 360.268 161.88 364.268 164.6L357.668 173.48C354.468 171.24 351.188 169.68 347.828 168.8C344.548 167.84 341.228 167.36 337.868 167.36C334.028 167.36 330.988 168 328.748 169.28C326.508 170.48 325.388 172.16 325.388 174.32C325.388 176.16 326.108 177.56 327.548 178.52C328.988 179.48 330.908 180.2 333.308 180.68C335.708 181.16 338.348 181.6 341.228 182C344.108 182.4 346.948 182.92 349.748 183.56C352.628 184.2 355.268 185.12 357.668 186.32C360.068 187.52 361.988 189.2 363.428 191.36C364.868 193.52 365.588 196.36 365.588 199.88C365.588 203.64 364.388 207 361.988 209.96C359.668 212.84 356.468 215.12 352.388 216.8C348.308 218.4 343.748 219.2 338.708 219.2ZM384.861 218L384.861 157.88L398.421 157.88L398.421 166.88C403.061 160.24 409.221 156.92 416.901 156.92C421.061 156.92 424.701 157.84 427.821 159.68C430.941 161.44 433.381 163.96 435.141 167.24C436.981 170.44 437.901 174.16 437.901 178.4L437.901 218L424.221 218L424.221 182.24C424.221 177.84 423.021 174.36 420.621 171.8C418.221 169.16 415.021 167.84 411.021 167.84C408.461 167.84 406.101 168.4 403.941 169.52C401.781 170.64 399.941 172.28 398.421 174.44L398.421 218L384.861 218ZM482.734 146.12C480.014 146.12 477.694 145.16 475.774 143.24C473.934 141.32 473.014 139.04 473.014 136.4C473.014 133.76 473.934 131.52 475.774 129.68C477.694 127.76 480.014 126.8 482.734 126.8C485.374 126.8 487.614 127.76 489.454 129.68C491.374 131.52 492.334 133.76 492.334 136.4C492.334 139.04 491.374 141.32 489.454 143.24C487.614 145.16 485.374 146.12 482.734 146.12ZM498.094 219.2C490.814 219.2 485.294 217.48 481.534 214.04C477.774 210.6 475.894 205.52 475.894 198.8L475.894 168.68L454.294 168.68L454.294 157.88L489.454 157.88L489.454 197.36C489.454 200.96 490.294 203.56 491.974 205.16C493.734 206.76 496.374 207.56 499.894 207.56C501.894 207.56 503.854 207.36 505.774 206.96C507.694 206.56 509.814 205.92 512.134 205.04L512.134 216.44C510.294 217.16 508.094 217.8 505.534 218.36C502.974 218.92 500.494 219.2 498.094 219.2ZM528.167 243.08L528.167 157.88L541.367 157.88L541.367 165.2C543.527 162.56 546.047 160.56 548.927 159.2C551.807 157.76 555.007 157.04 558.527 157.04C563.567 157.04 568.127 158.44 572.207 161.24C576.367 163.96 579.647 167.64 582.047 172.28C584.527 176.92 585.767 182.16 585.767 188C585.767 193.76 584.527 199 582.047 203.72C579.567 208.36 576.247 212.04 572.087 214.76C568.007 217.48 563.407 218.84 558.287 218.84C555.007 218.84 551.967 218.24 549.167 217.04C546.367 215.76 543.887 213.96 541.727 211.64L541.727 243.08L528.167 243.08ZM555.287 207.8C558.647 207.8 561.607 206.96 564.167 205.28C566.727 203.6 568.727 201.28 570.167 198.32C571.607 195.28 572.327 191.84 572.327 188C572.327 184.16 571.607 180.76 570.167 177.8C568.727 174.84 566.727 172.52 564.167 170.84C561.607 169.08 558.647 168.2 555.287 168.2C552.567 168.2 550.047 168.76 547.727 169.88C545.407 170.92 543.407 172.44 541.727 174.44L541.727 201.56C543.407 203.56 545.407 205.12 547.727 206.24C550.127 207.28 552.647 207.8 555.287 207.8ZM626.52 219.2C620.92 219.2 615.72 218.48 610.92 217.04C606.2 215.52 602.16 213.36 598.8 210.56L605.4 201.56C609.56 204.2 613.28 206.04 616.56 207.08C619.84 208.12 623.12 208.64 626.4 208.64C630.8 208.64 634.28 207.92 636.84 206.48C639.48 205.04 640.8 203.16 640.8 200.84C640.8 199 640.08 197.56 638.64 196.52C637.2 195.48 635.32 194.72 633 194.24C630.68 193.76 628.08 193.32 625.2 192.92C622.4 192.52 619.56 192 616.68 191.36C613.88 190.72 611.28 189.84 608.88 188.72C606.56 187.52 604.68 185.88 603.24 183.8C601.8 181.64 601.08 178.84 601.08 175.4C601.08 171.56 602.12 168.28 604.2 165.56C606.28 162.76 609.2 160.6 612.96 159.08C616.8 157.56 621.16 156.8 626.04 156.8C630.68 156.8 635.16 157.44 639.48 158.72C643.88 159.92 648.08 161.88 652.08 164.6L645.48 173.48C642.28 171.24 639 169.68 635.64 168.8C632.36 167.84 629.04 167.36 625.68 167.36C621.84 167.36 618.8 168 616.56 169.28C614.32 170.48 613.2 172.16 613.2 174.32C613.2 176.16 613.92 177.56 615.36 178.52C616.8 179.48 618.72 180.2 621.12 180.68C623.52 181.16 626.16 181.6 629.04 182C631.92 182.4 634.76 182.92 637.56 183.56C640.44 184.2 643.08 185.12 645.48 186.32C647.88 187.52 649.8 189.2 651.24 191.36C652.68 193.52 653.4 196.36 653.4 199.88C653.4 203.64 652.2 207 649.8 209.96C647.48 212.84 644.28 215.12 640.2 216.8C636.12 218.4 631.56 219.2 626.52 219.2ZM672.673 218L672.673 131.96L686.233 129.56L686.233 166.88C690.873 160.24 697.033 156.92 704.713 156.92C708.873 156.92 712.513 157.84 715.633 159.68C718.753 161.44 721.193 163.96 722.953 167.24C724.793 170.44 725.713 174.16 725.713 178.4L725.713 218L712.033 218L712.033 182.24C712.033 177.84 710.833 174.36 708.433 171.8C706.033 169.16 702.833 167.84 698.833 167.84C696.273 167.84 693.913 168.4 691.753 169.52C689.593 170.64 687.753 172.28 686.233 174.44L686.233 218L672.673 218ZM770.906 219.2C765.226 219.2 760.106 217.84 755.546 215.12C750.986 212.32 747.386 208.6 744.746 203.96C742.106 199.24 740.786 193.92 740.786 188C740.786 182.16 742.106 176.92 744.746 172.28C747.386 167.56 750.986 163.84 755.546 161.12C760.106 158.32 765.226 156.92 770.906 156.92C776.586 156.92 781.706 158.32 786.266 161.12C790.826 163.84 794.426 167.56 797.066 172.28C799.706 176.92 801.026 182.16 801.026 188C801.026 193.92 799.706 199.24 797.066 203.96C794.426 208.6 790.826 212.32 786.266 215.12C781.786 217.84 776.666 219.2 770.906 219.2ZM770.906 207.56C774.186 207.56 777.066 206.72 779.546 205.04C782.106 203.36 784.106 201.04 785.546 198.08C787.066 195.12 787.826 191.76 787.826 188C787.826 184.24 787.066 180.92 785.546 178.04C784.106 175.08 782.106 172.76 779.546 171.08C777.066 169.4 774.186 168.56 770.906 168.56C767.626 168.56 764.706 169.44 762.146 171.2C759.666 172.88 757.666 175.2 756.146 178.16C754.706 181.04 753.986 184.32 753.986 188C753.986 191.76 754.706 195.12 756.146 198.08C757.666 201.04 759.666 203.36 762.146 205.04C764.706 206.72 767.626 207.56 770.906 207.56ZM853.419 219.2C845.899 219.2 840.179 217.56 836.259 214.28C832.419 210.92 830.499 206.04 830.499 199.64L830.499 168.68L811.299 168.68L811.299 157.88L830.499 157.88L830.499 141.32L844.059 138.44L844.059 157.88L869.499 157.88L869.499 168.68L844.059 168.68L844.059 197.12C844.059 200.88 844.939 203.56 846.699 205.16C848.539 206.76 851.379 207.56 855.219 207.56C857.299 207.56 859.459 207.4 861.699 207.08C864.019 206.68 866.659 205.96 869.619 204.92L869.619 216.44C867.059 217.24 864.379 217.88 861.579 218.36C858.779 218.92 856.059 219.2 853.419 219.2Z" fill="#FAFDFA"/>
<path d="M261.58 98.857L131.071 38L86.2738 134.069L184.155 179.711L166.405 217.776L101.151 187.348L109.181 170.128L76.5535 154.914L55 201.135L185.508 261.992L230.306 165.924L132.425 120.281L150.175 82.2161L215.429 112.645L207.399 129.864L240.026 145.079L261.58 98.857Z" fill="#FAFDFA"/>
</svg>
