<svg width="1000" height="180" viewBox="0 0 1000 180" fill="none" xmlns="http://www.w3.org/2000/svg">
<rect width="1000" height="180" rx="10" fill="#282A36"/>
<path d="M250 14H750V161.727H250V14Z" fill="#282A36"/>
<path d="M425.402 127.182C422.22 127.182 419.266 126.773 416.538 125.955C413.857 125.091 411.561 123.864 409.652 122.273L413.402 117.159C415.766 118.659 417.879 119.705 419.743 120.295C421.607 120.886 423.47 121.182 425.334 121.182C427.834 121.182 429.811 120.773 431.266 119.955C432.766 119.136 433.516 118.068 433.516 116.75C433.516 115.705 433.107 114.886 432.288 114.295C431.47 113.705 430.402 113.273 429.084 113C427.766 112.727 426.288 112.477 424.652 112.25C423.061 112.023 421.447 111.727 419.811 111.364C418.22 111 416.743 110.5 415.379 109.864C414.061 109.182 412.993 108.25 412.175 107.068C411.357 105.841 410.947 104.25 410.947 102.295C410.947 100.114 411.538 98.25 412.72 96.7046C413.902 95.1136 415.561 93.8864 417.697 93.0227C419.879 92.1591 422.357 91.7273 425.129 91.7273C427.766 91.7273 430.311 92.0909 432.766 92.8182C435.266 93.5 437.652 94.6136 439.925 96.1591L436.175 101.205C434.357 99.9318 432.493 99.0455 430.584 98.5455C428.72 98 426.834 97.7273 424.925 97.7273C422.743 97.7273 421.016 98.0909 419.743 98.8182C418.47 99.5 417.834 100.455 417.834 101.682C417.834 102.727 418.243 103.523 419.061 104.068C419.879 104.614 420.97 105.023 422.334 105.295C423.697 105.568 425.197 105.818 426.834 106.045C428.47 106.273 430.084 106.568 431.675 106.932C433.311 107.295 434.811 107.818 436.175 108.5C437.538 109.182 438.629 110.136 439.447 111.364C440.266 112.591 440.675 114.205 440.675 116.205C440.675 118.341 439.993 120.25 438.629 121.932C437.311 123.568 435.493 124.864 433.175 125.818C430.857 126.727 428.266 127.182 425.402 127.182Z" fill="#FAFDFA"/>
<path d="M451.625 126.5V92.3409H459.33V97.4545C461.966 93.6818 465.466 91.7955 469.83 91.7955C472.194 91.7955 474.262 92.3182 476.034 93.3636C477.807 94.3636 479.194 95.7955 480.194 97.6591C481.239 99.4773 481.762 101.591 481.762 104V126.5H473.989V106.182C473.989 103.682 473.307 101.705 471.944 100.25C470.58 98.75 468.762 98 466.489 98C465.034 98 463.694 98.3182 462.466 98.9546C461.239 99.5909 460.194 100.523 459.33 101.75V126.5H451.625Z" fill="#FAFDFA"/>
<path d="M507.235 85.6591C505.69 85.6591 504.371 85.1136 503.281 84.0227C502.235 82.9318 501.712 81.6364 501.712 80.1364C501.712 78.6364 502.235 77.3636 503.281 76.3182C504.371 75.2273 505.69 74.6818 507.235 74.6818C508.735 74.6818 510.008 75.2273 511.053 76.3182C512.144 77.3636 512.69 78.6364 512.69 80.1364C512.69 81.6364 512.144 82.9318 511.053 84.0227C510.008 85.1136 508.735 85.6591 507.235 85.6591ZM515.962 127.182C511.826 127.182 508.69 126.205 506.553 124.25C504.417 122.295 503.349 119.409 503.349 115.591V98.4773H491.076V92.3409H511.053V114.773C511.053 116.818 511.531 118.295 512.485 119.205C513.485 120.114 514.985 120.568 516.985 120.568C518.121 120.568 519.235 120.455 520.326 120.227C521.417 120 522.621 119.636 523.94 119.136V125.614C522.894 126.023 521.644 126.386 520.19 126.705C518.735 127.023 517.326 127.182 515.962 127.182Z" fill="#FAFDFA"/>
<path d="M533.049 140.75V92.3409H540.549V96.5C541.777 95 543.208 93.8636 544.845 93.0909C546.481 92.2727 548.299 91.8636 550.299 91.8636C553.163 91.8636 555.754 92.6591 558.072 94.25C560.436 95.7955 562.299 97.8864 563.663 100.523C565.072 103.159 565.777 106.136 565.777 109.455C565.777 112.727 565.072 115.705 563.663 118.386C562.254 121.023 560.368 123.114 558.004 124.659C555.686 126.205 553.072 126.977 550.163 126.977C548.299 126.977 546.572 126.636 544.981 125.955C543.39 125.227 541.981 124.205 540.754 122.886V140.75H533.049ZM548.458 120.705C550.368 120.705 552.049 120.227 553.504 119.273C554.958 118.318 556.095 117 556.913 115.318C557.731 113.591 558.14 111.636 558.14 109.455C558.14 107.273 557.731 105.341 556.913 103.659C556.095 101.977 554.958 100.659 553.504 99.7046C552.049 98.7046 550.368 98.2046 548.458 98.2046C546.913 98.2046 545.481 98.5227 544.163 99.1591C542.845 99.75 541.708 100.614 540.754 101.75V117.159C541.708 118.295 542.845 119.182 544.163 119.818C545.527 120.409 546.958 120.705 548.458 120.705Z" fill="#FAFDFA"/>
<path d="M588.932 127.182C585.75 127.182 582.795 126.773 580.068 125.955C577.386 125.091 575.091 123.864 573.182 122.273L576.932 117.159C579.295 118.659 581.409 119.705 583.273 120.295C585.136 120.886 587 121.182 588.864 121.182C591.364 121.182 593.341 120.773 594.795 119.955C596.295 119.136 597.045 118.068 597.045 116.75C597.045 115.705 596.636 114.886 595.818 114.295C595 113.705 593.932 113.273 592.614 113C591.295 112.727 589.818 112.477 588.182 112.25C586.591 112.023 584.977 111.727 583.341 111.364C581.75 111 580.273 110.5 578.909 109.864C577.591 109.182 576.523 108.25 575.705 107.068C574.886 105.841 574.477 104.25 574.477 102.295C574.477 100.114 575.068 98.25 576.25 96.7046C577.432 95.1136 579.091 93.8864 581.227 93.0227C583.409 92.1591 585.886 91.7273 588.659 91.7273C591.295 91.7273 593.841 92.0909 596.295 92.8182C598.795 93.5 601.182 94.6136 603.455 96.1591L599.705 101.205C597.886 99.9318 596.023 99.0455 594.114 98.5455C592.25 98 590.364 97.7273 588.455 97.7273C586.273 97.7273 584.545 98.0909 583.273 98.8182C582 99.5 581.364 100.455 581.364 101.682C581.364 102.727 581.773 103.523 582.591 104.068C583.409 104.614 584.5 105.023 585.864 105.295C587.227 105.568 588.727 105.818 590.364 106.045C592 106.273 593.614 106.568 595.205 106.932C596.841 107.295 598.341 107.818 599.705 108.5C601.068 109.182 602.159 110.136 602.977 111.364C603.795 112.591 604.205 114.205 604.205 116.205C604.205 118.341 603.523 120.25 602.159 121.932C600.841 123.568 599.023 124.864 596.705 125.818C594.386 126.727 591.795 127.182 588.932 127.182Z" fill="#FAFDFA"/>
<path d="M615.155 126.5V77.6136L622.86 76.25V97.4545C625.496 93.6818 628.996 91.7955 633.36 91.7955C635.723 91.7955 637.792 92.3182 639.564 93.3636C641.337 94.3636 642.723 95.7955 643.723 97.6591C644.769 99.4773 645.292 101.591 645.292 104V126.5H637.519V106.182C637.519 103.682 636.837 101.705 635.473 100.25C634.11 98.75 632.292 98 630.019 98C628.564 98 627.223 98.3182 625.996 98.9545C624.769 99.5909 623.723 100.523 622.86 101.75V126.5H615.155Z" fill="#FAFDFA"/>
<path d="M670.969 127.182C667.742 127.182 664.833 126.409 662.242 124.864C659.651 123.273 657.606 121.159 656.106 118.523C654.606 115.841 653.856 112.818 653.856 109.455C653.856 106.136 654.606 103.159 656.106 100.523C657.606 97.8409 659.651 95.7273 662.242 94.1818C664.833 92.5909 667.742 91.7955 670.969 91.7955C674.197 91.7955 677.106 92.5909 679.697 94.1818C682.288 95.7273 684.333 97.8409 685.833 100.523C687.333 103.159 688.083 106.136 688.083 109.455C688.083 112.818 687.333 115.841 685.833 118.523C684.333 121.159 682.288 123.273 679.697 124.864C677.151 126.409 674.242 127.182 670.969 127.182ZM670.969 120.568C672.833 120.568 674.469 120.091 675.879 119.136C677.333 118.182 678.469 116.864 679.288 115.182C680.151 113.5 680.583 111.591 680.583 109.455C680.583 107.318 680.151 105.432 679.288 103.795C678.469 102.114 677.333 100.795 675.879 99.8409C674.469 98.8864 672.833 98.4091 670.969 98.4091C669.106 98.4091 667.447 98.9091 665.992 99.9091C664.583 100.864 663.447 102.182 662.583 103.864C661.765 105.5 661.356 107.364 661.356 109.455C661.356 111.591 661.765 113.5 662.583 115.182C663.447 116.864 664.583 118.182 665.992 119.136C667.447 120.091 669.106 120.568 670.969 120.568Z" fill="#FAFDFA"/>
<path d="M717.852 127.182C713.579 127.182 710.329 126.25 708.102 124.386C705.92 122.477 704.829 119.705 704.829 116.068V98.4773H693.92V92.3409H704.829V82.9318L712.534 81.2955V92.3409H726.988V98.4773H712.534V114.636C712.534 116.773 713.034 118.295 714.034 119.205C715.079 120.114 716.693 120.568 718.875 120.568C720.056 120.568 721.284 120.477 722.556 120.295C723.875 120.068 725.375 119.659 727.056 119.068V125.614C725.602 126.068 724.079 126.432 722.488 126.705C720.897 127.023 719.352 127.182 717.852 127.182Z" fill="#FAFDFA"/>
<path d="M381.579 58.8051L307.427 24.2273L281.974 78.8117L337.588 104.745L327.503 126.373L290.427 109.084L294.989 99.3L276.451 90.6555L264.205 116.918L338.357 151.496L363.81 96.9113L308.196 70.9779L318.281 49.3501L355.357 66.639L350.795 76.423L369.333 85.0675L381.579 58.8051Z" fill="#FAFDFA"/>
</svg>
